<svg width="28" height="25" viewBox="0 0 28 25" fill="none" xmlns="http://www.w3.org/2000/svg">
<path d="M4.5 12.048L4.596 11.532C4.972 11.5 5.244 11.452 5.412 11.388C5.58 11.316 5.684 11.184 5.724 10.992C5.772 10.792 5.796 10.48 5.796 10.056V4.824C5.332 4.84 4.964 4.864 4.692 4.896C4.428 4.92 4.232 4.98 4.104 5.076C3.976 5.164 3.884 5.308 3.828 5.508C3.772 5.708 3.72 5.984 3.672 6.336L3.108 6.384C3.14 6.152 3.168 5.912 3.192 5.664C3.216 5.416 3.236 5.176 3.252 4.944C3.268 4.704 3.28 4.492 3.288 4.308L3.396 4.212L4.392 4.344H8.112L9.132 4.212L9.24 4.308C9.248 4.492 9.26 4.704 9.276 4.944C9.292 5.176 9.312 5.412 9.336 5.652C9.368 5.892 9.396 6.12 9.42 6.336L8.856 6.384C8.8 6.024 8.74 5.744 8.676 5.544C8.62 5.336 8.528 5.188 8.4 5.1C8.28 5.004 8.096 4.94 7.848 4.908C7.6 4.876 7.26 4.848 6.828 4.824C6.804 5.064 6.78 5.408 6.756 5.856C6.732 6.304 6.712 6.808 6.696 7.368C6.68 7.92 6.664 8.484 6.648 9.06C6.64 9.636 6.636 10.168 6.636 10.656C6.636 10.952 6.688 11.164 6.792 11.292C6.896 11.412 7.072 11.472 7.32 11.472C7.56 11.472 7.78 11.46 7.98 11.436L8.016 11.484L7.908 12.036C7.74 12.028 7.544 12.02 7.32 12.012C7.096 12.012 6.876 12.008 6.66 12C6.452 12 6.28 12 6.144 12C6.016 12 5.852 12 5.652 12C5.46 12.008 5.26 12.016 5.052 12.024C4.852 12.032 4.668 12.04 4.5 12.048ZM11.5959 12.144C11.1399 12.144 10.7359 12.032 10.3839 11.808C10.0319 11.584 9.75594 11.272 9.55594 10.872C9.36394 10.464 9.26794 10 9.26794 9.48C9.26794 8.904 9.38794 8.388 9.62794 7.932C9.87594 7.468 10.2119 7.104 10.6359 6.84C11.0599 6.568 11.5319 6.432 12.0519 6.432C12.5079 6.432 12.9119 6.544 13.2639 6.768C13.6159 6.992 13.8879 7.304 14.0799 7.704C14.2799 8.104 14.3799 8.568 14.3799 9.096C14.3799 9.664 14.2559 10.18 14.0079 10.644C13.7679 11.108 13.4359 11.476 13.0119 11.748C12.5959 12.012 12.1239 12.144 11.5959 12.144ZM11.9319 11.556C12.3799 11.556 12.7359 11.376 12.9999 11.016C13.2639 10.648 13.3959 10.152 13.3959 9.528C13.3959 9.048 13.3239 8.624 13.1799 8.256C13.0359 7.888 12.8359 7.6 12.5799 7.392C12.3239 7.184 12.0279 7.08 11.6919 7.08C11.2439 7.08 10.8879 7.264 10.6239 7.632C10.3599 8 10.2279 8.5 10.2279 9.132C10.2279 9.612 10.2999 10.036 10.4439 10.404C10.5879 10.764 10.7879 11.048 11.0439 11.256C11.2999 11.456 11.5959 11.556 11.9319 11.556ZM20.2125 12.144C19.5885 12.144 19.2325 11.86 19.1445 11.292L19.0605 11.256C18.6445 11.536 18.3125 11.748 18.0645 11.892C17.8165 12.036 17.6485 12.108 17.5605 12.108C17.1045 12.108 16.7005 12.004 16.3485 11.796C16.0045 11.58 15.7325 11.284 15.5325 10.908C15.3405 10.524 15.2445 10.08 15.2445 9.576C15.2445 9 15.3765 8.476 15.6405 8.004C15.9125 7.524 16.2765 7.144 16.7325 6.864C17.1885 6.576 17.6885 6.432 18.2325 6.432C18.3445 6.432 18.4685 6.436 18.6045 6.444C18.7405 6.452 18.8925 6.464 19.0605 6.48V4.488C19.0605 4.264 19.0245 4.1 18.9525 3.996C18.8805 3.892 18.7685 3.84 18.6165 3.84C18.5525 3.84 18.4845 3.848 18.4125 3.864C18.3485 3.88 18.3165 3.888 18.3165 3.888L18.3645 3.444C18.5725 3.42 18.7805 3.388 18.9885 3.348C19.1965 3.308 19.3885 3.268 19.5645 3.228C19.7405 3.188 19.8805 3.156 19.9845 3.132C20.0885 3.108 20.1405 3.096 20.1405 3.096L20.2125 3.252C20.1805 3.308 20.1485 3.488 20.1165 3.792C20.0845 4.096 20.0525 4.496 20.0205 4.992C19.9965 5.488 19.9725 6.048 19.9485 6.672C19.9245 7.288 19.9045 7.944 19.8885 8.64C19.8805 9.336 19.8765 10.036 19.8765 10.74C19.8765 10.916 19.9205 11.052 20.0085 11.148C20.0965 11.244 20.2165 11.292 20.3685 11.292C20.4965 11.292 20.6125 11.268 20.7165 11.22C20.8285 11.164 20.9165 11.112 20.9805 11.064C21.0525 11.016 21.0885 10.992 21.0885 10.992L21.2565 11.184C21.2565 11.184 21.2285 11.224 21.1725 11.304C21.1165 11.384 21.0405 11.484 20.9445 11.604C20.8485 11.716 20.7365 11.824 20.6085 11.928C20.4885 12.032 20.3565 12.104 20.2125 12.144ZM17.7525 11.328C17.8965 11.328 18.0445 11.296 18.1965 11.232C18.3485 11.168 18.4885 11.096 18.6165 11.016C18.7525 10.928 18.8605 10.852 18.9405 10.788C19.0205 10.724 19.0605 10.692 19.0605 10.692V7.404C19.0605 7.404 18.9565 7.36 18.7485 7.272C18.5405 7.176 18.2565 7.128 17.8965 7.128C17.3605 7.128 16.9365 7.312 16.6245 7.68C16.3205 8.04 16.1685 8.536 16.1685 9.168C16.1685 9.568 16.2365 9.932 16.3725 10.26C16.5165 10.588 16.7085 10.848 16.9485 11.04C17.1885 11.232 17.4565 11.328 17.7525 11.328ZM24.0178 12.144C23.5618 12.144 23.1578 12.032 22.8058 11.808C22.4538 11.584 22.1778 11.272 21.9778 10.872C21.7858 10.464 21.6898 10 21.6898 9.48C21.6898 8.904 21.8098 8.388 22.0498 7.932C22.2978 7.468 22.6338 7.104 23.0578 6.84C23.4818 6.568 23.9538 6.432 24.4738 6.432C24.9298 6.432 25.3338 6.544 25.6858 6.768C26.0378 6.992 26.3098 7.304 26.5018 7.704C26.7018 8.104 26.8018 8.568 26.8018 9.096C26.8018 9.664 26.6778 10.18 26.4298 10.644C26.1898 11.108 25.8578 11.476 25.4338 11.748C25.0178 12.012 24.5458 12.144 24.0178 12.144ZM24.3538 11.556C24.8018 11.556 25.1578 11.376 25.4218 11.016C25.6858 10.648 25.8178 10.152 25.8178 9.528C25.8178 9.048 25.7458 8.624 25.6018 8.256C25.4578 7.888 25.2578 7.6 25.0018 7.392C24.7458 7.184 24.4498 7.08 24.1138 7.08C23.6658 7.08 23.3098 7.264 23.0458 7.632C22.7818 8 22.6498 8.5 22.6498 9.132C22.6498 9.612 22.7218 10.036 22.8658 10.404C23.0098 10.764 23.2098 11.048 23.4658 11.256C23.7218 11.456 24.0178 11.556 24.3538 11.556Z" fill="#F00B0B"/>
<path d="M17.876 18.196L17.864 19.216C17.872 20.136 17.604 20.848 17.06 21.352C16.516 21.856 15.736 22.108 14.72 22.108C13.744 22.108 13 21.864 12.488 21.376C11.976 20.888 11.732 20.188 11.756 19.276L11.768 18.16L11.732 14.272H13.364L13.28 19.06C13.272 19.644 13.396 20.076 13.652 20.356C13.908 20.636 14.296 20.776 14.816 20.776C15.856 20.776 16.372 20.232 16.364 19.144L16.28 14.272H17.936L17.876 18.196ZM21.3928 16.312C22.0088 16.312 22.4888 16.452 22.8328 16.732C23.1848 17.004 23.3608 17.388 23.3608 17.884C23.3608 18.028 23.3368 18.484 23.2888 19.252C23.2808 19.476 23.2688 19.708 23.2528 19.948C23.2368 20.18 23.2288 20.38 23.2288 20.548C23.2288 20.684 23.2488 20.78 23.2888 20.836C23.3288 20.884 23.4008 20.908 23.5048 20.908C23.5848 20.908 23.6888 20.892 23.8168 20.86L23.9368 20.956L23.7928 21.796C23.5368 21.964 23.2448 22.064 22.9168 22.096C22.6768 22.072 22.4768 21.988 22.3168 21.844C22.1568 21.692 22.0488 21.484 21.9928 21.22H21.9088C21.5088 21.644 21.0968 21.94 20.6728 22.108C20.0968 22.1 19.6448 21.948 19.3168 21.652C18.9888 21.356 18.8248 20.952 18.8248 20.44C18.8248 20.04 18.9248 19.728 19.1248 19.504C19.3328 19.272 19.6448 19.116 20.0608 19.036L21.8968 18.688V18.196C21.8968 17.676 21.6408 17.416 21.1288 17.416C20.8808 17.416 20.6168 17.472 20.3368 17.584C20.0648 17.696 19.7568 17.872 19.4128 18.112L19.2928 18.04L19.1128 16.984C19.4568 16.768 19.8248 16.604 20.2168 16.492C20.6088 16.372 21.0008 16.312 21.3928 16.312ZM20.6128 19.768C20.4848 19.8 20.3888 19.856 20.3248 19.936C20.2688 20.008 20.2408 20.12 20.2408 20.272C20.2408 20.48 20.2968 20.644 20.4088 20.764C20.5208 20.876 20.6768 20.932 20.8768 20.932C21.1888 20.932 21.5168 20.748 21.8608 20.38L21.8848 19.492L20.6128 19.768ZM25.0822 19.696L25.0222 16.528L26.5942 16.396L26.5222 19.54L26.5942 22H24.9982L25.0822 19.696ZM25.8382 13.684C26.0862 13.684 26.2782 13.756 26.4142 13.9C26.5582 14.044 26.6302 14.244 26.6302 14.5C26.6302 14.772 26.5542 14.988 26.4022 15.148C26.2502 15.308 26.0422 15.388 25.7782 15.388C25.5142 15.388 25.3102 15.316 25.1662 15.172C25.0302 15.028 24.9622 14.824 24.9622 14.56C24.9622 14.296 25.0382 14.084 25.1902 13.924C25.3502 13.764 25.5662 13.684 25.8382 13.684Z" fill="black"/>
<path d="M5.13397 14.5C5.51887 13.8333 6.48113 13.8333 6.86603 14.5L10.3301 20.5C10.715 21.1667 10.2339 22 9.4641 22H2.5359C1.7661 22 1.28497 21.1667 1.66987 20.5L5.13397 14.5Z" fill="#EA1414"/>
</svg>
